PathFileType	4	(X/Y/Z)	Kaydara	
DataRate	CameraRate	NumFrames	NumMarkers	Units	OrigDataRate	OrigDataStartFrame	OrigNumFrames	
60.00	60.00	4	74	mm	60.00	1635	67	
Frame#	Time	Y_rasi			Y_rpsi			Y_lpsi			Y_fneck			Y_bneck			Y_fhead			Y_rhead			Y_rshld			Y_relbtop			Y_relbext			Y_relblow			Y_rwrext			Y_rwrtop			Y_rwrlow			Y_lshld			Y_lelbext			Y_lelblow			Y_lelbtop			Y_lwrext			Y_lwrtop			Y_lwrlow			Y_rtopleg			Y_ltopleg			Y_rkneefr			Y_rkneebk			Y_rkneeis			Y_lkneefr			Y_lknssbk			Y_lkneeis			Y_rankfr			Y_rankis			Y_rankbk			Y_lankfr			Y_lankbk			Y_lankis			Y_lhead			Y_lasi			D_rpsi			D_lpsi			D_fneck			D_bneck			D_fhead			D_rhead			D_lhead			D_rshld			D_relbtop			D_relbext			D_relblow			D_rwrext			D_rwrtop			D_rwrlow			D_lshld			D_lelbext			D_lelblow			D_lelbtop			D_lwrext			D_lwrtop			D_lwrlow			D_rtopleg			D_ltopleg			D_rkneefr			D_rkneebk			D_rkneeis			D_lkneefr			D_lknssbk			D_lkneeis			D_rankfr			D_rankis			D_rankbk			D_lankfr			D_lankbk			D_lankis			D_lasi			D_rasi			
		X1	Y1	Z1	X2	Y2	Z2	X3	Y3	Z3	X4	Y4	Z4	X5	Y5	Z5	X6	Y6	Z6	X7	Y7	Z7	X8	Y8	Z8	X9	Y9	Z9	X10	Y10	Z10	X11	Y11	Z11	X12	Y12	Z12	X13	Y13	Z13	X14	Y14	Z14	X15	Y15	Z15	X16	Y16	Z16	X17	Y17	Z17	X18	Y18	Z18	X19	Y19	Z19	X20	Y20	Z20	X21	Y21	Z21	X22	Y22	Z22	X23	Y23	Z23	X24	Y24	Z24	X25	Y25	Z25	X26	Y26	Z26	X27	Y27	Z27	X28	Y28	Z28	X29	Y29	Z29	X30	Y30	Z30	X31	Y31	Z31	X32	Y32	Z32	X33	Y33	Z33	X34	Y34	Z34	X35	Y35	Z35	X36	Y36	Z36	X37	Y37	Z37	X38	Y38	Z38	X39	Y39	Z39	X40	Y40	Z40	X41	Y41	Z41	X42	Y42	Z42	X43	Y43	Z43	X44	Y44	Z44	X45	Y45	Z45	X46	Y46	Z46	X47	Y47	Z47	X48	Y48	Z48	X49	Y49	Z49	X50	Y50	Z50	X51	Y51	Z51	X52	Y52	Z52	X53	Y53	Z53	X54	Y54	Z54	X55	Y55	Z55	X56	Y56	Z56	X57	Y57	Z57	X58	Y58	Z58	X59	Y59	Z59	X60	Y60	Z60	X61	Y61	Z61	X62	Y62	Z62	X63	Y63	Z63	X64	Y64	Z64	X65	Y65	Z65	X66	Y66	Z66	X67	Y67	Z67	X68	Y68	Z68	X69	Y69	Z69	X70	Y70	Z70	X71	Y71	Z71	X72	Y72	Z72	X73	Y73	Z73	X74	Y74	Z74	

51	27.233	-572.37812	1086.91025	-140.10393	-555.30384	1074.09637	-319.96080	-333.86917	1060.60806	-234.49266	-496.60885	1428.14133	-149.27991	-409.57535	1484.36493	-219.97841	-548.98983	1623.32855	-73.32991	-508.65520	1576.70563	-241.87090	-623.48923	1426.41998	-301.06352	-636.66397	1147.44530	-388.26515	-649.50874	1165.21843	-446.45050	-583.30921	1149.31908	-464.33582	-670.30083	951.18736	-281.67757	-687.12654	980.34256	-254.34341	-650.71312	1001.09779	-238.98548	-280.79603	1383.62976	-83.48404	-166.80317	1086.81633	-137.05028	-208.11838	1075.56473	-181.56199	-232.70876	1109.41856	-101.36764	-387.80788	938.96873	-58.57497	-382.19460	953.94051	-16.35191	-400.27317	999.01924	-21.92388	-633.99693	917.59644	-283.19456	-305.31025	904.06685	-127.30369	-639.04469	415.02369	-290.64713	-614.71630	459.42959	-364.50531	-543.98964	421.51730	-277.25006	-344.99199	474.38213	-119.54801	-279.10509	496.30974	-211.43127	-398.88184	467.90421	-198.69505	-632.63275	143.77607	-333.63705	-561.68213	134.97519	-343.31463	-601.34373	136.63980	-398.50807	-276.84998	132.52397	-171.12793	-259.56703	130.27409	-238.55061	-333.22445	125.52956	-208.39430	-393.15464	1566.73035	-142.84221	-423.52406	1073.49884	-84.22381	-996.92131	1176.44875	586.46843	-1125.39757	1178.17406	462.65396	-981.22574	1601.17828	414.36558	-1079.53453	1652.97424	472.39876	-941.27319	1769.68246	270.50358	-993.52432	1802.17300	438.91441	-1103.55446	1772.91901	336.80603	-898.62717	1568.86154	580.46185	-867.28104	1201.20178	591.75472	-831.84990	1219.39217	643.54515	-906.41609	1207.69356	673.11821	-793.29781	924.33250	613.28270	-757.81273	938.61397	594.34723	-771.58264	946.06308	548.54317	-1209.08737	1539.17587	346.32835	-1200.11063	1166.52016	297.00525	-1183.84819	1148.01750	370.90313	-1137.79114	1174.62433	305.59618	-1134.44489	920.52170	270.74404	-1104.18526	939.12430	242.61322	-1071.45164	940.04524	276.98896	-876.41388	1040.75752	591.28197	-1130.44075	1026.68175	345.62862	-726.88858	584.49467	414.21898	-764.01199	577.22038	522.29443	-841.61072	556.37836	429.71344	-1020.38757	468.07018	376.21181	-1114.98322	514.61216	418.74580	-1030.18761	503.06927	486.92585	-773.45589	214.88827	525.47634	-844.38751	209.67512	494.51313	-837.44179	220.36282	580.00710	-1054.92729	158.94433	412.64549	-1075.87357	151.56121	490.09792	-992.74277	165.28461	450.45956	-1026.11679	1186.62323	335.86613	-874.47830	1187.69943	472.57145 
52	27.250	-572.01931	1086.91475	-140.39641	-554.68685	1074.45160	-320.32360	-333.38284	1060.92201	-234.55509	-496.82262	1428.34427	-148.75498	-409.61235	1484.52789	-219.26563	-548.97778	1623.62076	-72.97560	-508.56083	1576.86859	-241.34739	-623.50296	1426.45935	-300.46980	-635.07862	1146.81900	-387.23591	-648.38036	1164.56978	-445.32970	-582.13211	1149.26849	-463.48278	-667.78374	948.94547	-282.38947	-684.81850	977.75833	-254.77652	-648.33435	998.23479	-239.39913	-281.34291	1383.96790	-82.41396	-167.13335	1087.06017	-135.16661	-208.13374	1075.85266	-180.12558	-233.57759	1109.55185	-100.27781	-389.12064	938.71231	-58.51628	-383.55820	953.60100	-16.22211	-401.53519	998.84605	-21.93630	-633.47267	917.59628	-284.42505	-304.89334	904.15604	-127.53190	-638.78323	415.13084	-290.92274	-614.01924	459.29764	-364.73480	-543.74126	421.34762	-277.13549	-344.09286	474.21696	-120.16299	-278.85752	496.28059	-211.71942	-398.65486	467.91073	-199.03540	-632.41695	143.71496	-333.75347	-561.94557	134.77770	-342.94521	-601.10695	136.63925	-398.46714	-276.97027	132.65752	-171.02318	-259.52576	130.23994	-238.58917	-333.18710	125.57073	-208.46088	-393.11344	1566.75262	-142.09868	-423.13892	1073.36792	-84.24033	-997.61589	1176.83777	587.33879	-1125.23239	1178.25706	462.56374	-979.96780	1601.23367	413.64265	-1078.61115	1652.82623	471.66725	-940.51399	1769.63882	270.21416	-992.47307	1802.13699	438.57552	-1102.74773	1772.97852	336.69281	-898.49899	1568.68790	580.50426	-869.00360	1201.01944	593.00838	-833.35823	1219.20212	645.11848	-908.35297	1207.51877	674.05228	-794.94148	924.18869	614.84016	-758.86612	938.44002	596.65581	-771.70471	946.34918	550.77457	-1207.62482	1539.06570	344.78027	-1199.81911	1166.22566	297.21491	-1183.76335	1147.99171	371.28765	-1137.69142	1173.87627	305.59862	-1135.87601	919.52736	272.72102	-1106.00220	937.87857	244.06109	-1072.65869	939.06517	277.88361	-876.69228	1041.24359	592.81754	-1129.44328	1026.81862	345.44212	-722.63062	586.25877	414.83967	-760.66162	578.61656	522.63386	-837.21054	557.68684	429.47468	-1020.25688	468.10982	376.48834	-1115.05600	514.60873	418.60538	-1030.74120	502.91862	487.33879	-770.58334	216.55262	526.54785	-841.36101	211.46658	494.96975	-835.00229	222.26299	580.85846	-1054.85718	158.80091	412.49245	-1076.26068	151.52578	489.90154	-992.81769	165.30014	450.58781	-1024.70909	1186.53732	336.39240	-874.13498	1187.63016	474.35535 
53	27.267	-571.67809	1086.94626	-140.47874	-554.31206	1074.69765	-320.48805	-332.90318	1061.15562	-234.76931	-496.81709	1428.42651	-148.27486	-409.50954	1484.67178	-218.67207	-548.72265	1623.60382	-72.38280	-508.45203	1577.04208	-240.87524	-623.28960	1426.58630	-300.17223	-633.56709	1146.30447	-386.40770	-646.92574	1163.95287	-444.45560	-580.64442	1149.09927	-462.67933	-665.71350	947.08374	-282.73962	-683.05801	975.65681	-255.15369	-646.94763	996.33636	-239.38236	-281.62542	1384.11560	-81.58472	-167.47225	1086.99631	-133.79036	-208.26065	1075.89760	-178.86116	-234.34975	1109.50180	-99.04339	-390.11402	938.57765	-58.59192	-384.28749	953.49106	-16.24737	-402.79266	998.68652	-22.06231	-632.93537	917.67273	-285.05085	-304.36956	904.26163	-127.99444	-638.64544	415.20290	-291.06739	-613.59303	459.16252	-364.88884	-543.54046	421.19350	-277.11369	-343.73711	474.28963	-120.47671	-278.57925	496.22002	-212.11401	-398.42999	467.98561	-199.31875	-632.34150	143.73728	-333.82618	-562.29500	134.59837	-342.63672	-601.00029	136.65164	-398.45203	-276.79596	132.59672	-171.17680	-259.59143	130.14809	-238.54197	-333.08739	125.54183	-208.45798	-393.00514	1566.77383	-141.65614	-422.71698	1073.36670	-84.31708	-998.22639	1177.10587	588.06202	-1125.04539	1178.41415	462.33696	-978.98270	1601.17203	413.24348	-1077.96249	1652.96921	471.28460	-939.59480	1769.65302	270.14719	-991.23726	1802.04208	438.47263	-1101.60240	1773.16147	336.72890	-898.32863	1568.39020	580.85243	-870.69351	1200.94238	594.75170	-834.92798	1219.03770	647.28958	-910.16289	1207.52892	675.36781	-796.15524	924.15062	616.19843	-759.82681	938.61298	598.89679	-771.67191	946.73401	552.72804	-1206.29311	1539.07074	343.48694	-1199.38416	1166.02501	297.59546	-1183.84216	1148.18527	371.87710	-1137.50900	1173.13034	306.96850	-1137.54211	918.72772	275.04950	-1108.01651	936.56906	245.55147	-1073.90915	938.05557	278.49295	-877.35977	1041.44485	594.62982	-1128.65646	1026.89758	345.43491	-718.69331	587.95868	415.13588	-757.16476	580.15881	522.77397	-833.31619	559.09248	429.40422	-1019.88449	468.34782	377.05437	-1115.18051	514.66652	418.10997	-1031.86195	502.79350	488.04005	-767.65854	218.23231	527.38739	-838.53195	213.25733	495.87135	-832.18002	224.34479	581.78963	-1054.80774	158.87289	412.35050	-1076.74988	151.43440	489.58633	-993.02994	165.39778	451.02928	-1023.27583	1186.44730	337.04681	-873.89618	1187.59766	476.13258 
54	27.283	-571.33579	1086.94153	-140.42026	-554.02683	1074.83963	-320.55977	-332.43477	1061.34239	-235.08968	-496.48819	1428.33023	-147.89593	-409.26441	1484.78470	-218.19708	-548.50315	1623.52386	-71.77299	-508.28121	1577.14462	-240.31349	-623.01155	1426.68335	-300.10815	-632.32491	1145.90187	-385.85648	-645.30045	1163.57841	-443.98880	-578.81516	1148.78197	-461.71635	-664.54178	945.81932	-282.78418	-682.16248	974.38972	-255.35511	-646.00830	994.95079	-239.36426	-281.74095	1384.13391	-80.91683	-167.89885	1086.71303	-132.86102	-208.45333	1075.70763	-178.16296	-234.66576	1109.30489	-98.09492	-391.12919	938.32191	-58.88957	-385.26222	952.98416	-16.53762	-403.84823	998.68210	-22.36737	-632.57664	917.60277	-285.11621	-303.84960	904.33876	-128.51364	-638.54706	415.25967	-291.14902	-613.40641	459.09649	-365.00931	-543.50296	421.14368	-277.14417	-343.20728	474.31404	-120.84029	-278.28690	496.15398	-212.54225	-398.11996	468.03833	-199.57666	-632.36179	143.76947	-333.80848	-562.34379	134.59083	-342.63641	-601.00464	136.67001	-398.48255	-277.51368	132.35251	-170.87944	-259.42598	130.16504	-238.67195	-333.02944	125.55568	-208.51757	-392.86434	1566.79657	-141.21419	-422.49920	1073.65067	-85.71734	-999.00391	1177.24953	588.94535	-1124.49226	1178.64571	461.94118	-977.76024	1601.11359	413.22933	-1076.78833	1652.91718	470.66029	-938.51585	1769.81339	269.88998	-989.86473	1801.90643	438.58398	-1100.52284	1773.32291	336.98147	-898.21938	1568.25958	581.43387	-872.26418	1200.85480	596.57944	-836.44699	1218.97614	649.50584	-911.78543	1207.41554	676.80702	-796.92459	924.43993	617.64992	-760.14397	938.96797	600.95581	-771.32080	947.55318	554.86835	-1204.55963	1539.19525	342.11376	-1199.13628	1165.98969	298.14125	-1183.57079	1148.39027	372.41486	-1137.15012	1172.71103	307.44547	-1139.05449	917.98622	277.35624	-1109.96552	935.46928	247.24407	-1075.22041	937.14310	279.70240	-877.86354	1041.54373	596.52740	-1127.67448	1027.13219	345.51422	-715.13420	589.50687	415.09892	-753.91266	581.46980	522.71061	-829.86290	560.45719	429.38053	-1019.26933	468.46046	377.97443	-1115.23186	514.73225	417.51675	-1032.93114	502.75833	488.72261	-765.04822	219.87158	527.93629	-836.01128	215.04927	496.80161	-829.14986	226.19061	582.83962	-1054.61052	158.92555	412.13703	-1077.32468	151.29580	489.07814	-993.31520	165.49524	451.76346	-1021.53465	1186.30386	337.48165	-873.47366	1187.49519	478.13236 
